{
  "asset": {
    "generator": "glTF-Transform v4.2.1",
    "version": "2.0"
  },
  "accessors": [
    {
      "type": "VEC3",
      "componentType": 5126,
      "count": 11484,
      "max": [
        0.7419049739837646,
        0.7395349740982056,
        0.9248819947242737
      ],
      "min": [
        -0.5853449702262878,
        -0.7210429906845093,
        -0.10764700174331665
      ],
      "bufferView": 0,
      "byteOffset": 0
    },
    {
      "type": "VEC3",
      "componentType": 5126,
      "count": 11484,
      "bufferView": 0,
      "byteOffset": 12
    },
    {
      "type": "VEC2",
      "componentType": 5126,
      "count": 11484,
      "bufferView": 0,
      "byteOffset": 24
    }
  ],
  "bufferViews": [
    {
      "buffer": 0,
      "byteOffset": 0,
      "byteLength": 367488,
      "byteStride": 32,
      "target": 34962
    }
  ],
  "buffers": [
    {
      "uri": "buffer.bin",
      "byteLength": 367488
    }
  ],
  "materials": [
    {
      "name": "Texture1",
      "doubleSided": true,
      "pbrMetallicRoughness": {
        "metallicFactor": 0
      }
    }
  ],
  "meshes": [
    {
      "primitives": [
        {
          "attributes": {
            "POSITION": 0,
            "NORMAL": 1,
            "TEXCOORD_0": 2
          },
          "mode": 4,
          "material": 0
        }
      ]
    }
  ],
  "nodes": [
    {
      "name": "empty_2",
      "children": [
        1
      ]
    },
    {
      "name": "o mesh_all1_Texture1_0",
      "mesh": 0
    }
  ],
  "scenes": [
    {
      "name": "empty_1",
      "nodes": [
        0
      ]
    }
  ],
  "scene": 0
}